<?xml version="1.0" standalone="no"?>
<!DOCTYPE svg PUBLIC "-//W3C//DTD SVG 20010904//EN"
"http://www.w3.org/TR/2001/REC-SVG-20010904/DTD/svg10.dtd">
<svg
  version="1.0"
  xmlns="http://www.w3.org/2000/svg"
  width="200.000000pt"
  height="200.000000pt"
  viewBox="0 0 200.000000 200.000000"
  preserveAspectRatio="xMidYMid meet"
>
  <g transform="translate(0.000000,200.000000) scale(0.100000,-0.100000)"
  fill="#000" stroke="none">
  <path d="M1140 1753 c-84 -8 -221 -46 -290 -81 -64 -32 -75 -41 -78 -65 -3
  -26 -5 -27 -17 -11 -12 17 -15 17 -49 -6 -41 -28 -41 -30 -21 -70 18 -36 10
  -38 -22 -8 l-23 22 -51 -50 c-51 -50 -139 -174 -178 -252 l-22 -43 23 -20 23
  -20 -27 4 c-29 4 -44 -13 -25 -32 8 -8 7 -11 -5 -11 -11 0 -19 -17 -26 -57
  -17 -88 -25 -200 -17 -220 4 -10 9 -43 10 -73 4 -63 25 -141 40 -143 6 -1 11
  17 13 41 2 29 9 46 23 55 16 10 19 23 19 93 0 171 59 313 180 434 124 125 262
  183 435 183 109 0 196 -21 289 -68 38 -20 69 -35 70 -33 2 2 9 21 17 43 13 35
  32 52 153 134 l139 94 -24 20 c-13 10 -49 32 -81 48 -51 26 -57 27 -69 12 -12
  -14 -14 -13 -19 8 -5 21 -18 27 -90 46 -47 12 -104 22 -127 22 -47 1 -42 8
  -61 -94 l-10 -50 -1 40 c-2 55 -11 85 -26 85 -7 0 -15 7 -19 15 -3 8 -9 14
  -13 13 -4 0 -24 -3 -43 -5z"/>
  <path d="M968 1340 c-159 -25 -317 -139 -395 -287 -31 -56 -63 -163 -63 -209
  0 -14 47 -58 165 -152 91 -73 166 -132 168 -132 2 0 -4 24 -14 53 -44 132 -30
  295 34 380 86 113 251 129 363 34 31 -26 35 -27 173 -27 165 0 163 -1 105 96
  -46 76 -85 117 -158 165 -104 68 -251 99 -378 79z"/>
  <path d="M1071 796 c2 -2 59 -49 127 -105 l122 -101 0 -78 0 -78 67 -55 c37
  -30 89 -71 115 -92 l48 -39 0 276 0 276 -242 0 c-133 0 -239 -2 -237 -4z"/>
  <path d="M514 724 c4 -33 13 -64 19 -70 20 -19 479 -306 483 -301 6 6 -34 40
  -280 242 l-229 188 7 -59z"/>
  </g>
</svg>
